<svg xmlns="http://www.w3.org/2000/svg" width="172" height="84" viewBox="0 0 172 84">
    <defs>
        <filter id="a" width="126.9%" height="122.4%" x="-13.5%" y="-11.2%" filterUnits="objectBoundingBox">
            <feGaussianBlur in="SourceGraphic" stdDeviation="2 0"/>
        </filter>
        <filter id="b" width="134.4%" height="128%" x="-17.2%" y="-14%" filterUnits="objectBoundingBox">
            <feGaussianBlur in="SourceGraphic" stdDeviation="2 0"/>
        </filter>
    </defs>
    <g fill="none" fill-rule="nonzero">
        <path fill="#2E6765" d="M89.604 7.627A7.627 7.627 0 0 0 74.42 6.591a7.022 7.022 0 0 0-9.742 6.477v2.563a7.003 7.003 0 0 0-2.65-.517h-.012a7.022 7.022 0 0 0-7.022 7.023v32.94l.01.137C56.077 70.727 64.336 77 79.317 77c9.255 0 17.63-4.687 21.793-12.062.307-.493.916-1.455 1.947-3.077l3.23-5.077.048-.075c3.4-5.35 5.096-8.055 5.505-8.83.84-1.59 1.778-2.886 2.662-3.608 1.224-1 2.007-2.095 2.897-3.735.626-1.161.742-2.949.43-4.425-.556-2.632-2.545-4.686-5.643-4.674-2.658.01-5.591 1.014-7.883 2.563a21.977 21.977 0 0 0-3.818 3.292v-21.2A7.627 7.627 0 0 0 89.604 9.19V7.627zM64.678 37.251a2.186 2.186 0 1 1 4.373 0V22.137a7.025 7.025 0 0 0-4.373-6.506v21.62zm20.553-21.16v18.742a2.186 2.186 0 1 1 4.373 0V9.19a7.628 7.628 0 0 0-4.373 6.9zm4 0a3.627 3.627 0 1 1 7.254 0v26.764c.074 2.5-.239 3.094.972 3.067 1.282-.03 2.424-.806 3.06-1.92 1.962-3.428 4.258-5.492 6.026-6.688 1.578-1.067 3.753-1.87 5.658-1.877 2.197-.008 1.814 2.947 1.682 3.191-.516.952-1.074 1.861-1.911 2.545-1.572 1.284-2.819 3.226-3.67 4.84-.73 1.383-9.233 14.624-10.636 16.89C94.328 68.878 87.377 73 79.317 73c-11.304 0-19.312-3.456-20.323-18.062V22.137a3.022 3.022 0 0 1 3.022-3.023h.013a3.022 3.022 0 0 1 3.022 3.023V37.25a1.814 1.814 0 0 0 3.627 0V13.068a3.022 3.022 0 1 1 6.045 0v21.765a1.814 1.814 0 0 0 3.627 0V7.627a3.627 3.627 0 1 1 7.254 0v27.206a1.814 1.814 0 0 0 3.627 0V16.09z"/>
        <path fill="#55A6AC" fill-opacity=".186" d="M95.61 13.721c.549.636.88 1.464.88 2.37v17.297a1.813 1.813 0 0 1-.88-1.555V13.72zm-4.942 56.24C87.424 71.882 83.524 73 79.323 73 68.019 73 60.011 69.544 59 54.938V22.137a3.022 3.022 0 0 1 3.022-3.023h.013a3.022 3.022 0 0 1 3.022 3.023V37.25a1.814 1.814 0 0 0 3.627 0V13.068a3.022 3.022 0 1 1 6.045 0v4.697a3.022 3.022 0 0 0-2.694-1.65h-.013A3.022 3.022 0 0 0 69 19.136v32.801C70.01 66.544 78.019 70 89.323 70c.452 0 .9-.013 1.345-.038zM78.26 35.417a1.81 1.81 0 0 0 .096-.583V7.627a3.627 3.627 0 1 1 7.254 0v25.761a1.813 1.813 0 0 1-.881-1.555V10.068a3.022 3.022 0 1 0-6.045 0v24.183c0 .444-.16.85-.424 1.165z"/>
        <path fill="#2E6765" d="M151.362 36.014v-1.097c0-2.952-2.417-5.323-5.372-5.323-2.712 0-4.97 1.997-5.324 4.608a4.963 4.963 0 0 0-1.963-.403c-2.718 0-4.943 2.183-4.943 4.903v1.788a4.964 4.964 0 0 0-1.915-.382h-.009c-2.718 0-4.943 2.183-4.943 4.903v22.818l.007.197c.763 10.813 6.608 15.168 17.204 15.168 6.537 0 12.459-3.251 15.41-8.38.217-.342.65-1.012 1.38-2.14l2.29-3.531.034-.052c2.413-3.725 3.614-5.604 3.905-6.144.594-1.105 1.26-2.005 1.887-2.509.867-.694 1.423-1.458 2.055-2.6.45-.82.534-2.08.31-3.12-.396-1.84-1.802-3.263-3.964-3.255-1.867.007-3.933.7-5.549 1.772a15.512 15.512 0 0 0-2.785 2.374V40.805c0-2.952-2.416-5.323-5.372-5.323-.838 0-1.634.19-2.343.532zm-17.602 19.51c0-.861.69-1.537 1.514-1.537.825 0 1.514.676 1.514 1.538V45.01a4.9 4.9 0 0 0-3.028-4.521v15.035zm17.602-19.51c-1.789.86-3.028 2.677-3.028 4.791v13.038c0-.862.689-1.539 1.514-1.539.825 0 1.514.677 1.514 1.539V36.014zm-.228 4.791c0-1.394 1.151-2.523 2.571-2.523 1.421 0 2.572 1.13 2.572 2.523v18.619c.053 1.739-.169 2.152.69 2.133.91-.02 1.718-.56 2.17-1.336 1.39-2.385 3.019-3.82 4.273-4.652 1.119-.742 2.66-1.3 4.012-1.306 1.558-.006 1.286 2.05 1.192 2.22-.366.662-.76 1.294-1.355 1.77-1.114.894-1.998 2.245-2.602 3.367-.518.962-6.547 10.173-7.542 11.75-2.367 4.156-7.296 7.024-13.011 7.024-8.016 0-13.694-2.404-14.41-12.565V45.01c0-1.162.958-2.103 2.142-2.103h.009c1.184 0 2.143.941 2.143 2.103v10.514c0 .696.576 1.262 1.286 1.262.71 0 1.286-.566 1.286-1.262V38.702c0-1.161.96-2.103 2.143-2.103 1.184 0 2.143.942 2.143 2.103v15.14c0 .697.576 1.262 1.286 1.262.71 0 1.286-.565 1.286-1.261V34.917c0-1.394 1.151-2.523 2.572-2.523 1.42 0 2.572 1.13 2.572 2.523v18.926c0 .696.576 1.261 1.286 1.261.71 0 1.286-.565 1.286-1.261V40.805z" filter="url(#a)" opacity=".828" transform="rotate(37 148.194 53.405)"/>
        <path fill="#2E6765" d="M28.944 43.077c0-2.213-1.79-4.01-4.002-4.01a4.006 4.006 0 0 0-4 3.882 3.665 3.665 0 0 0-5.448 3.203l-.001 1.922a3.64 3.64 0 0 0-1.784-.464h-.007a3.665 3.665 0 0 0-3.662 3.668v18.54l.005.135c.592 8.594 5.104 12.034 13.399 12.034 5.13 0 9.763-2.614 12.045-6.714.12-.19.467-.742 1.078-1.706l1.819-2.87.027-.042c1.901-3.004 2.863-4.543 3.087-4.97.49-.931 1.04-1.694 1.575-2.131.652-.535 1.073-1.127 1.557-2.023.314-.583.374-1.521.212-2.29-.286-1.361-1.3-2.411-2.89-2.405-1.437.005-3.034.554-4.28 1.399a12.31 12.31 0 0 0-2.603 2.397v-12.77c0-2.214-1.79-4.011-4.002-4.011-.781 0-1.51.224-2.125.61v-1.384zm.082 4.784c0-1.132.915-2.05 2.043-2.05 1.128 0 2.042.918 2.042 2.05V62.99c.042 1.413-.134 1.748.547 1.733.723-.017 1.365-.455 1.724-1.085 1.104-1.938 2.397-3.105 3.393-3.78.888-.603 2.113-1.057 3.186-1.061 1.237-.005 1.021 1.665.947 1.803-.29.538-.604 1.052-1.076 1.439-.885.726-1.587 1.823-2.066 2.735-.412.782-5.2 8.266-5.99 9.547-1.88 3.377-5.793 5.707-10.332 5.707-6.365 0-10.875-1.953-11.444-10.209v-18.54c0-.944.762-1.708 1.702-1.708h.007c.94 0 1.702.764 1.702 1.708v8.543c0 .566.457 1.025 1.02 1.025.565 0 1.022-.46 1.022-1.025V46.153c0-.944.762-1.709 1.702-1.709s1.702.765 1.702 1.709v12.301c0 .566.457 1.025 1.021 1.025.564 0 1.021-.459 1.021-1.025V43.077c0-1.132.915-2.05 2.043-2.05 1.128 0 2.042.918 2.042 2.05v15.377c0 .566.457 1.025 1.021 1.025.564 0 1.021-.459 1.021-1.025V47.861z" filter="url(#b)" opacity=".828" transform="rotate(-40 26.486 63.274)"/>
    </g>
</svg>
