<svg xmlns="http://www.w3.org/2000/svg" width="446" height="238" viewBox="0 0 446 238">
    <g fill="none" fill-rule="nonzero">
        <path fill="#55A6AC" d="M20.67 175.355L92.01 22.425h34.13l-72.216 152.93h55.81V113.98h30.616v61.376h16.992v28.858h-16.992V236h-30.616v-31.787H20.671v-28.858zM262.957 83.95c-.586-21.387-10.596-32.275-30.03-32.666-19.53.39-29.491 11.28-29.882 32.666v90.528c.39 21.582 10.351 32.47 29.883 32.666 19.433-.196 29.443-11.084 30.03-32.666V83.949zm-90.527-1.904c.195-19.727 6.494-34.912 18.896-45.557 11.621-10.547 25.488-15.82 41.602-15.82 16.601 0 30.713 5.273 42.334 15.82 11.816 10.645 17.92 25.83 18.31 45.557v94.19c-.39 19.628-6.494 34.765-18.31 45.41-11.621 10.546-25.733 15.917-42.334 16.113-16.114-.196-29.98-5.567-41.602-16.113-12.402-10.645-18.701-25.782-18.896-45.41v-94.19zm136.23 93.31l71.338-152.93h34.13l-72.216 152.93h55.81V113.98h30.616v61.376h16.992v28.858h-16.992V236h-30.615v-31.787h-89.063v-28.858z"/>
        <path fill="#EA3E3C" d="M.67 155.355L72.01 2.425h34.13l-72.216 152.93h55.81V93.98h30.616v61.376h16.992v28.858h-16.992V216H89.733v-31.787H.671v-28.858zM242.957 63.95c-.586-21.387-10.596-32.275-30.03-32.666-19.53.39-29.491 11.28-29.882 32.666v90.528c.39 21.582 10.351 32.47 29.883 32.666 19.433-.196 29.443-11.084 30.03-32.666V63.949zm-90.527-1.904c.195-19.727 6.494-34.912 18.896-45.557C182.946 5.941 196.813.668 212.927.668c16.601 0 30.713 5.273 42.334 15.82 11.816 10.645 17.92 25.83 18.31 45.557v94.19c-.39 19.628-6.494 34.765-18.31 45.41-11.621 10.546-25.733 15.917-42.334 16.113-16.114-.196-29.98-5.567-41.602-16.113-12.402-10.645-18.701-25.782-18.896-45.41v-94.19zm136.23 93.31l71.338-152.93h34.13l-72.216 152.93h55.81V93.98h30.616v61.376h16.992v28.858h-16.992V216h-30.615v-31.787h-89.063v-28.858z"/>
        <path fill="#FAFAFA" d="M10.67 165.355L82.01 12.425h34.13l-72.216 152.93h55.81V103.98h30.616v61.376h16.992v28.858h-16.992V226H99.733v-31.787H10.671v-28.858zM252.957 73.95c-.586-21.387-10.596-32.275-30.03-32.666-19.53.39-29.491 11.28-29.882 32.666v90.528c.39 21.582 10.351 32.47 29.883 32.666 19.433-.196 29.443-11.084 30.03-32.666V73.949zm-90.527-1.904c.195-19.727 6.494-34.912 18.896-45.557 11.621-10.547 25.488-15.82 41.602-15.82 16.601 0 30.713 5.273 42.334 15.82 11.816 10.645 17.92 25.83 18.31 45.557v94.19c-.39 19.628-6.494 34.765-18.31 45.41-11.621 10.546-25.733 15.917-42.334 16.113-16.114-.196-29.98-5.567-41.602-16.113-12.402-10.645-18.701-25.782-18.896-45.41v-94.19zm136.23 93.31l71.338-152.93h34.13l-72.216 152.93h55.81V103.98h30.616v61.376h16.992v28.858h-16.992V226h-30.615v-31.787h-89.063v-28.858z"/>
    </g>
</svg>
