<svg xmlns="http://www.w3.org/2000/svg" width="160" height="44" viewBox="0 0 160 44">
    <path fill="#FFF" fill-rule="evenodd" d="M83.103 26.05l-.19-.077s2.055-4.245 3.474-9.72c.05-.1.098-.198.098-.345 1.566-5.922 4.258-8.143 6.704-8.832 2.544-.642 6.117-.198 7.487 2.664 1.222 2.417.489 5.574.147 5.672-.49.15-.49-.443-.49-.443.196-1.085.244-2.022.147-2.763-.195-1.776-2.202-3.454-4.011-2.22-1.52.987-1.274 3.257-.394 5.774 2.838 5.87 6.019 14.997 3.035 21.609 1.322.248 5.235.445 9.982-8.14 3.524-6.217 5.823-15.542 14.923-14.211 1.714.247 4.748 1.432 6.263 3.503 5.334-.937 10.766-.74 16.393-1.43 4.745-.64 10.324-2.616 11.89-7.994.784-2.86-1.517-8.83-5.529-7.45-1.223.395-2.838 1.876-1.761 3.306.39.542 1.026.937 1.713.641 0 0 .048 0 .048-.05.782-.394 1.712-.443 2.25.396.49.691.294 1.678-.39 2.121-1.028.74-2.398-.099-3.23-.69a5.94 5.94 0 0 1-1.566-1.58c-1.517-2.169.196-4.538 2.348-5.377 4.795-2.171 8.613 4.687 7.292 9.08-1.665 5.623-7.44 8.04-12.918 8.731-5.285.643-10.57.692-16 1.383.097.296.146.591.196.936.342 2.221-1.274 5.033-3.77 4.59-2.543-.445-2.053-3.653-.538-5.083a5.701 5.701 0 0 1 2.3-1.183s-1.32-1.63-3.669-2.32c-14.924-4.54-12.282 24.028-26.962 22.204 0 0-1.515 2.96-5.136 4.44h-.05v.048c-3.817 1.383-9.051 1.185-10.764-3.206-1.37-4.096.635-9.77 5.138-11.397 3.375-.889 5.773 2.022 7.143 4.884.195-5.081-1.909-10.016-3.425-15-2.447-6.809 1.663-9.868 1.663-9.868-2.935 1.481-4.404 5.132-4.942 6.958-.71 2.62-1.5 5.238-2.342 7.458H86s-3.788 9.07-8.068 15.28c-1.87 2.661-4.92 7.343-8.954 5.027-6.444-5.569-1.919-18.779.737-25.728.788-2.07 1.33-3.45 1.232-3.647-.395-.542-1.526 1.429-1.526 1.429-2.313 3.895-4.92 7.64-7.576 11.681-1.181 1.578-3.247 4.88-5.609 5.225-2.017.296-3-1.677-2.705-3.844 1.23-4.24 2.607-8.478 3.788-12.716.294-.642-.394-1.184-.935-.642-.639.593-1.968 2.563-9.987 15.032-2.46 3.598-3.738 3.696-4.526 3.5-3.444-1.084-1.967-5.915-1.967-5.915s1.13-3.35 2.36-7.097c-3.985 2.76-9.495 2.81-12.988-1.132-5.41 1.083-10.724 1.38-16.382 2.415C7.63 22.92-.39 26.864 1.578 33.813c.788 2.17 3.05 5.078 5.854 3.944 1.232-.494 2.756-2.02 1.625-3.402-.443-.542-1.133-.936-1.771-.59-.05.048-.05.048-.099.048-.737.493-1.671.542-2.262-.197a1.513 1.513 0 0 1 .295-2.167c.983-.79 2.41-.049 3.296.493.59.394 1.18.936 1.623 1.477 1.673 2.07.099 4.535-2.016 5.52-3.247 1.823-6.79-1.577-7.725-4.732-2.362-7.54 6.297-12.221 12.3-13.405 5.264-.986 10.576-1.428 15.989-2.316-.738-1.479-.492-3.894.933-5.027 1.28-.985 3.642-1.135 4.233.936.245 1.233-.247 2.514-1.084 3.35-.639.642-1.426 1.038-2.262 1.383 3.247 3.055 7.92 2.61 11.412.098 0 0 1.133-1.233 1.87-3.253.247-.494.689-.987 1.623-1.085.148-.05.346-.05 3.05 0 0 0 .986 0 .197 2.366-1.868 5.52-4.132 11.533-4.132 11.533s-.147.937.688 0c3.494-4.289 6.102-9.217 9.643-13.948.296-.346 3.691-4.633 5.903-3.105.691.542 1.183 1.922.198 5.273.69-2.021-2.953 8.478-3.591 11.633-.05.394.147 1.378.786.739 3.446-3.302 7.184-10.4 9.989-14.738 0 0 3.69-6.456 6.789-4.139 1.377 1.034 1.523 2.365 1.229 3.548-.099.59-.344 1.183-3.05 9.76-1.87 6.504-3.74 15.524-.197 16.017 2.885-.588 5.398-3.575 10.19-13.778zm-53.286-7.91c1.28-.295 2.657-1.182 2.903-2.661.344-1.478-1.18-2.02-2.36-1.084-1.035.788-1.133 2.563-.543 3.696v.05zm99.826 1.714c-1.272.345-2.692 1.036-3.034 2.517-.294 1.43.93 2.12 2.25 1.233 1.077-.74 1.42-2.615.784-3.75zM94.216 36.333c-1.566-1.578-1.761-4.045-3.816-5.576-4.796-2.071-7.731 9.03-2.349 9.03 2.545 0 5.188-1.134 6.165-3.454z"/>
</svg>
