<svg xmlns="http://www.w3.org/2000/svg" width="186" height="91" viewBox="0 0 186 91">
    <defs>
        <filter id="a" width="122.7%" height="125.6%" x="-11.3%" y="-12.8%" filterUnits="objectBoundingBox">
            <feGaussianBlur in="SourceGraphic" stdDeviation="2 0"/>
        </filter>
        <filter id="b" width="132.4%" height="136.5%" x="-16.2%" y="-18.3%" filterUnits="objectBoundingBox">
            <feGaussianBlur in="SourceGraphic" stdDeviation="2 0"/>
        </filter>
    </defs>
    <g fill="#EA3E3C" fill-rule="nonzero">
        <path d="M115.139 24.372c-12.434-12.47-24.762-7.02-34.63 1.874-9.874-8.894-22.1-14.44-34.633-1.874-9.771 9.793-9.818 25.53 0 35.269 34.525 31.14 34.517 31.085 34.517 31.085s.05.103 34.743-31.085c9.824-9.74 9.774-25.476.003-35.269zM81.472 83.107l-1.05.934-1.02-.918a30704.66 30704.66 0 0 1-30.084-27.111c-7.752-7.775-7.714-20.28.098-28.108 8.76-8.783 17.195-7.447 27.746 2.057a5 5 0 0 0 6.694 0c10.478-9.445 19.045-10.78 27.742-2.058 7.813 7.83 7.852 20.331.1 28.105C96.621 69.561 86.9 78.273 81.471 83.107z"/>
        <path fill-opacity=".204" d="M93.428 79.548c-12.54 11.23-12.565 11.178-12.565 11.178s.008.056-34.517-31.085c-9.818-9.74-9.771-25.476 0-35.269 9.972-9.999 19.75-8.53 28.302-3.033a49.378 49.378 0 0 0-3.302 3.033c-9.771 9.793-9.818 25.53 0 35.269 9.956 8.98 17.04 15.366 22.082 19.907zm7.87-62.444c2.21.134 4.456.685 6.722 1.745a29.278 29.278 0 0 0-2.042 1.683c-1.508-1.358-3.07-2.505-4.68-3.428z"/>
        <path d="M171.88 21.64c-7.845-7.92-15.624-4.459-21.85 1.19-6.23-5.649-13.944-9.171-21.852-1.19-6.165 6.22-6.195 16.215 0 22.4 21.784 19.78 21.779 19.744 21.779 19.744s.031.065 21.92-19.744c6.199-6.186 6.168-16.18.002-22.4zM149.98 57.07c-3.489-3.16-9.416-8.537-18.346-16.644-4.154-4.23-4.122-11.012.094-15.266 4.704-4.747 8.934-4.073 14.942 1.375a5 5 0 0 0 6.718-.001c5.96-5.409 10.272-6.085 14.938-1.375l.001.001c4.217 4.254 4.249 11.034.096 15.263A6852.417 6852.417 0 0 1 149.98 57.07z" filter="url(#a)" opacity=".828" transform="rotate(41 153.704 42.055)"/>
        <path d="M37.744 7.275c-5.476-5.561-10.907-3.131-15.253.835-4.35-3.966-9.735-6.44-15.255-.835-4.304 4.366-4.325 11.384 0 15.727C22.443 36.89 22.44 36.865 22.44 36.865s.022.046 15.303-13.863c4.327-4.343 4.305-11.36.001-15.727zM22.461 30.127c-2.504-2.282-6.335-5.778-11.753-10.725-2.305-2.392-2.278-6.216.089-8.618 2.609-2.648 4.663-2.319 8.324 1.02a5 5 0 0 0 6.74 0c3.628-3.311 5.737-3.644 8.32-1.021 2.369 2.403 2.397 6.224.093 8.616A5590.059 5590.059 0 0 1 22.46 30.127z" filter="url(#b)" opacity=".828" transform="rotate(-12 13.976 9.918)"/>
    </g>
</svg>
