<svg xmlns="http://www.w3.org/2000/svg" width="190" height="81" viewBox="0 0 190 81">
    <g fill="none" fill-rule="evenodd">
        <path fill="#F80" fill-rule="nonzero" d="M188.311 26.8h-15.416v-1.7c0-2.812-2.287-5.1-5.098-5.1h-13.594a5.105 5.105 0 0 0-5.098 5.1v1.7H133.7c-.946 0-1.699.776-1.699 1.7v37.4c0 2.812 2.287 5.1 5.098 5.1h47.804A5.105 5.105 0 0 0 190 65.9V28.536v-.007c-.065-1.116-.751-1.722-1.689-1.729zM153 25.5c0-.827.763-1.5 1.7-1.5h13.6c.937 0 1.7.673 1.7 1.5V27h-17v-1.5zm33 4.5l-5.289 15.837A1.7 1.7 0 0 1 179.096 47h-9.58v-1.7c0-.939-.763-1.7-1.704-1.7h-13.624c-.941 0-1.703.761-1.703 1.7V47h-9.58a1.7 1.7 0 0 1-1.616-1.163L136 30h50zm-20 17v3h-10v-3h10zm21 19.278c0 .95-.76 1.722-1.692 1.722h-47.616c-.933 0-1.692-.773-1.692-1.722V39l2.7 8.244c.692 2.113 2.628 3.533 4.817 3.533h9.52v1.722c0 .951.758 1.722 1.693 1.722h13.54c.935 0 1.692-.77 1.692-1.722v-1.722h9.521c2.189 0 4.125-1.42 4.817-3.533L187 39v27.278z" opacity=".76"/>
        <path fill="#FFF" d="M46 14h86v64H46z"/>
        <path fill="#F80" fill-opacity=".163" d="M66 16v60H48V16h18z"/>
        <path fill="#F80" fill-rule="nonzero" d="M133.322 10.8h-24.455V8.1c0-4.466-3.627-8.1-8.086-8.1H79.22c-4.459 0-8.086 3.634-8.086 8.1v2.7H46.695A2.705 2.705 0 0 0 44 13.5v59.4c0 4.466 3.627 8.1 8.086 8.1h75.828c4.459 0 8.086-3.634 8.086-8.1V13.557v-.01c-.103-1.774-1.192-2.736-2.678-2.746zM76.523 8.1c0-1.489 1.21-2.7 2.696-2.7h21.562a2.701 2.701 0 0 1 2.696 2.7v2.7H76.523V8.1zm53.042 8.1l-8.37 25.154a2.691 2.691 0 0 1-2.557 1.846h-15.161v-2.7c0-1.491-1.207-2.7-2.696-2.7H79.22a2.697 2.697 0 0 0-2.696 2.7v2.7H61.362a2.691 2.691 0 0 1-2.557-1.846L50.435 16.2h79.13zm-31.48 27v5.4h-16.17v-5.4h16.17zm32.524 29.7c0 1.489-1.209 2.7-2.695 2.7H52.086a2.701 2.701 0 0 1-2.695-2.7V30.138l4.3 12.923a8.076 8.076 0 0 0 7.67 5.539h15.162v2.7c0 1.491 1.207 2.7 2.696 2.7h21.562a2.697 2.697 0 0 0 2.696-2.7v-2.7h15.161a8.076 8.076 0 0 0 7.67-5.539l4.301-12.923V72.9z"/>
        <path fill="#F80" fill-rule="nonzero" d="M48.777 31.934H37.613V30.7a3.7 3.7 0 0 0-3.691-3.7h-9.844a3.7 3.7 0 0 0-3.691 3.7v1.233H9.23c-.685 0-1.23.563-1.23 1.234V60.3a3.7 3.7 0 0 0 3.691 3.7H46.31A3.7 3.7 0 0 0 50 60.3V33.193v-.005c-.047-.81-.544-1.25-1.223-1.254zM23 31c0-.551.538-1 1.2-1h9.6c.662 0 1.2.449 1.2 1v1H23v-1zm24 4l-3.808 11.18c-.167.49-.635.82-1.163.82h-6.898v-1.2c0-.663-.549-1.2-1.226-1.2h-9.81c-.677 0-1.226.537-1.226 1.2V47H15.97c-.528 0-.996-.33-1.163-.82L11 35h36zM33 47v2h-7v-2h7zm15 13.753A1.24 1.24 0 0 1 46.772 62H12.228A1.24 1.24 0 0 1 11 60.753V41l1.96 5.97a3.684 3.684 0 0 0 3.493 2.558h6.908v1.247c0 .69.55 1.247 1.227 1.247h9.824c.678 0 1.227-.558 1.227-1.247v-1.247h6.908a3.684 3.684 0 0 0 3.494-2.558L48 41v19.753z" opacity=".76"/>
    </g>
</svg>
