<svg xmlns="http://www.w3.org/2000/svg" width="137" height="255" viewBox="0 0 137 255">
    <path fill="#DBDBDB" fill-rule="evenodd" d="M530.01-103.103l-1.917.206s-1.293-34.82-11.016-75.453c-.019-.82-.045-1.635-.555-2.593-10.305-44.06-.425-67.892 13.164-80.884 14.39-13.018 39.265-22.536 58.136-8.626 16.367 11.516 22.526 34.656 20.63 36.484-2.675 2.68-4.733-1.192-4.733-1.192-2.485-7.754-5.416-14.031-8.623-18.53-7.433-10.9-26.361-14.876-33.9-.545-6.497 11.71 2.976 25.661 17.454 39.02 38.887 28.425 91.318 76.91 94.75 130.39 9.497-2.971 35.74-15.276 36.974-87.758 1.459-52.774-15.858-121.579 48.195-144.502 12.047-4.337 35.974-7.146 53.052 1.094 31.589-24.632 67.752-42.211 102.114-66.258 28.772-20.656 58.364-52.91 49.936-93.42-4.796-21.377-40.528-52.327-61.941-29.388-6.626 6.821-12.037 22.09-.044 27.676 4.435 2.18 9.95 2.546 13.414-1.765 0 0 .317-.169.143-.496 3.741-5.287 9.645-8.836 16.067-5.235 5.601 2.807 7.74 9.926 4.803 15.195-4.144 8.39-15.998 7.678-23.489 6.713-5.205-.531-11.086-2.351-15.699-4.865-17.435-8.879-14.46-30.278-3.316-43.22 23.794-30.819 72.509.654 79.113 33.889 8.628 42.454-20.703 78.277-54.092 101.807-32.292 22.546-66.642 41.22-99.713 64.58 1.663 1.595 3.004 3.351 4.525 5.43 9.938 13.295 9.135 37.247-8.706 43.025-18.152 5.925-26.079-16.693-21.14-31.282 2.275-5.747 6.177-11.53 10.926-15.705 0 0-14.279-6.038-32.01-2.387-113.222 22.224 3.098 199.36-99.113 238.445 0 0 .368 24.57-18.152 46.79l-.324.172.17.32C634.957-3.693 600.08 13.192 573.663-9.5c-23.146-21.951-29.73-65.921-5.96-92.173 18.965-17.518 44.723-6.859 63.59 7.045-16.342-33.816-47.198-58.693-74.386-85.931-39.589-35.906-23.354-70.132-23.354-70.132-14.032 19.852-10.966 48.764-8.146 62.544 4.448 19.58 8.379 39.436 10.571 56.865l2.614-1.39s6.699 72.268.275 127.607c-2.987 23.84-6.674 64.943-41.046 63.852-61.378-13.922-77.613-115.741-84.352-170.259-2.03-16.222-3.277-27.103-4.598-28.047-4.46-2.16-5.012 14.609-5.012 14.609-1.605 33.42-5.653 66.882-8.982 102.447-2.248 14.385-4.291 43.08-18.52 53.529-12.142 8.93-25.403-.51-30.986-15.663-6.667-31.905-12.355-64.312-19.338-96.04-.303-5.206-6.677-6.347-8.33-.938-2.115 6.082-3.966 23.54-13.11 132.66-3.593 31.993-11.6 37.07-17.43 38.523-26.242 4.893-33.34-31.723-33.34-31.723s-4.232-25.767-9.188-54.452c-16.451 31.825-52.262 51.276-88.73 37.708-31.572 25.848-65.244 46.226-98.6 72.622-30.958 24.693-69.655 78.235-32.729 116.702 12.667 11.403 37.518 22.506 51.898 5.38 6.33-7.495 10.988-22.734-1.183-27.816-4.77-1.993-10.639-2.166-13.613 2.299-.156.492-.156.492-.475.662-3.107 5.773-9.036 9.335-15.454 6.57-5.93-2.614-8.377-9.545-5.583-15.152 3.68-8.56 15.566-8.686 23.23-8.23 5.216.52 10.952 2 15.715 3.997 18.104 7.685 16.362 29.215 5.972 42.981-14.887 23.153-49.81 13.294-66.843-4.03-41.555-40.944-1.242-101.522 33.849-130.078 30.962-24.704 64.11-46.032 96.376-70.61-9.939-7.078-16.707-23.674-11.322-36.007 4.944-10.87 19.844-20.04 30.877-8.595 5.875 7.183 7.105 17.245 4.537 25.606-1.948 6.394-5.717 11.709-9.982 16.86 31.791 8.64 60.763-10.485 74.861-38.986 0 0 3.124-11.967.937-27.697-.102-4.075 1.076-8.822 6.835-12.703.794-.832 2.092-1.522 19.919-10.592 0 0 6.432-3.42 9.485 14.743C281.548 1.536 287.6 48.587 287.6 48.587s2.289 6.615 4.496-2.39c7.948-40.086 7.896-81.257 14.622-124.395.736-3.285 8.047-43.013 27.786-40.736 6.388 1.133 14.385 8.425 19.567 33.687-2.503-15.57 10.101 65.511 16.866 88.294 1.046 2.737 5.742 8.473 7.695 2.086 11.056-33.487 10.868-92.725 14.146-130.746 0 0 1.714-54.89 29.984-50.546 12.574 1.956 18.147 10.127 20.324 18.858 1.402 4.194 1.85 8.904 13.904 74.204 10.341 48.89 29.39 114.174 54.23 105.087 16.796-13.838 22.859-42.02 18.79-125.093zM154.652 30.265c7.335-6.374 13.254-16.935 9.728-27.432-2.873-10.826-14.707-9.064-19.165 1.13-4.028 8.728 1.488 20.64 9.264 25.976l.173.326zm657.443-335.357c-7.113 6.671-13.99 16.104-11.09 26.953 3.041 10.347 13.436 10.597 18.979.223 4.462-8.559.195-21.98-7.889-27.176zM637.85-74.587c-15.702-4.854-25.534-20.264-44.259-23.109-38.508 3.145-19.19 85.737 15.966 67.045 16.621-8.838 29.953-25.412 28.293-43.936z" opacity=".494"/>
</svg>
