<svg xmlns="http://www.w3.org/2000/svg" width="133" height="200" viewBox="0 0 133 200">
    <path fill="#FFF" fill-rule="evenodd" d="M529.877-153.833l-1.898.243s-.437-33.21-9.056-71.768c0-.78-.006-1.559-.486-2.462-9.111-41.814 1.217-64.803 14.945-77.535 14.519-12.775 39.305-22.46 57.599-9.635 15.88 10.6 21.402 32.541 19.486 34.333-2.705 2.622-4.644-1.024-4.644-1.024-2.266-7.342-5.008-13.265-8.065-17.483-7.076-10.227-25.666-13.566-33.452.297-6.697 11.335 2.318 24.426 16.289 36.83 37.703 26.2 88.294 71.224 90.394 122.198 9.446-3.066 35.65-15.446 38.615-84.672 2.712-50.417-12.726-115.686 51.06-139.114 11.996-4.43 35.684-7.689 52.345-.234 31.778-24.277 67.902-41.93 102.403-65.716 28.9-20.413 58.89-51.917 51.547-90.39-4.22-20.292-38.747-48.978-60.439-26.562-6.706 6.672-12.415 21.379-.71 26.423 4.325 1.974 9.761 2.19 13.284-2.009 0 0 .318-.169.154-.477 3.82-5.137 9.734-8.668 15.987-5.385 5.462 2.546 7.4 9.29 4.375 14.39-4.293 8.111-15.978 7.716-23.35 6.975-5.125-.38-10.887-1.977-15.38-4.265-16.998-8.057-13.546-28.557-2.232-41.181 24.231-29.996 71.564-1.124 77.282 30.445 7.494 40.323-22.324 75.23-55.852 98.497-32.421 22.302-66.781 40.958-99.992 64.057 1.603 1.482 2.885 3.126 4.337 5.074 9.49 12.453 8.12 35.339-9.632 41.285-18.062 6.094-25.342-15.308-20.115-29.356 2.384-5.54 6.375-11.156 11.164-15.255 0 0-13.95-5.421-31.543-1.508-112.306 23.946-1.745 190.25-103.588 230.026 0 0-.23 23.447-19.047 45.106l-.325.173.16.3c-20.414 21.754-55.25 38.715-80.782 17.69-22.321-20.4-27.76-62.218-3.663-87.852 19.144-17.182 44.315-7.627 62.606 5.192-15.318-31.889-45.18-54.895-71.363-80.243-38.216-33.325-21.364-66.39-21.364-66.39-14.33 19.29-12.001 46.817-9.55 59.905 3.92 18.586 7.322 37.447 9.066 54.033l2.614-1.39s4.871 68.831-2.803 121.817c-3.525 22.83-8.155 62.16-42.06 61.946-60.256-11.811-73.83-108.624-79.168-160.509-1.614-15.437-2.582-25.795-3.863-26.665-4.35-1.954-5.3 14.068-5.3 14.068-2.39 31.943-7.192 63.987-11.336 98.02-2.565 13.787-5.274 41.23-19.572 51.55-12.202 8.818-25.066.124-30.211-14.207-5.813-30.298-10.648-61.1-16.776-91.22-.174-4.964-6.439-5.9-8.201-.695-2.234 5.857-4.482 22.569-16.14 126.963-4.317 30.629-12.343 35.668-18.135 37.196-26.023 5.304-32.148-29.48-32.148-29.48s-3.557-24.499-7.757-51.764C228.583-14.467 192.762 4.965 157.09-7.11c-31.792 25.437-65.523 45.703-99.087 71.706-31.158 24.32-70.649 76.368-35.123 112.201 12.23 10.581 36.495 20.582 51.103 3.886 6.43-7.308 11.396-21.97-.497-26.527-4.662-1.788-10.45-1.812-13.494 2.523-.166.474-.166.474-.485.643-3.207 5.586-9.145 9.13-15.414 6.645-5.79-2.353-8.04-8.91-5.146-14.33 3.839-8.262 15.575-8.668 23.13-8.418 5.137.37 10.763 1.646 15.418 3.437 17.686 6.901 15.448 27.497 4.859 40.89-15.254 22.462-49.491 13.892-65.89-2.236-40.035-38.088 1.222-96.892 36.55-124.998 31.161-24.331 64.4-45.491 96.844-69.734-9.642-6.517-15.923-22.197-10.31-34.101 5.143-10.497 20.073-19.61 30.69-8.95 5.626 6.716 6.597 16.293 3.86 24.336-2.077 6.151-5.925 11.316-10.26 16.337 31.176 7.482 60.237-11.474 74.842-39.023 0 0 3.372-11.5 1.592-26.464-.003-3.889 1.274-8.449 7.053-12.293.805-.813 2.103-1.503 19.92-10.591 0 0 6.431-3.42 9.008 13.845 5.823 40.377 10.664 85.15 10.664 85.15s2.1 6.26 4.495-2.391c8.813-38.46 9.754-77.765 17.433-119.109.807-3.153 8.98-41.257 28.412-39.56 6.279.929 13.998 7.697 18.505 31.69-2.096-14.805 8.392 62.298 14.522 83.885.967 2.588 5.464 7.95 7.546 1.806 11.721-32.236 12.963-88.784 17.116-125.16 0 0 3.014-52.445 30.817-48.979 12.366 1.565 17.67 9.231 19.609 17.514 1.283 3.97 1.613 8.455 11.938 70.506 9.03 46.425 26.261 108.29 51.002 99.017 16.914-13.616 23.579-40.667 21.565-119.877zM156.114-17.463c7.395-6.262 13.492-16.487 10.264-26.423-2.575-10.266-14.3-8.299-18.946 1.54-4.187 8.43.971 19.67 8.519 24.576l.163.307zm657.1-336.001c-7.183 6.54-14.197 15.71-11.596 25.998 2.752 9.805 13.007 9.793 18.73-.244 4.61-8.279.722-20.989-7.133-25.754zM635.648-129.208c-15.385-4.255-24.719-18.73-43.135-20.995-38.09 3.93-21.01 82.314 14.145 63.621 16.621-8.837 30.182-24.981 28.99-42.626z" opacity=".147"/>
</svg>
