<svg xmlns="http://www.w3.org/2000/svg" width="38" height="38" viewBox="0 0 38 38">
    <g fill="none" fill-rule="evenodd">
        <circle cx="18.942" cy="18.942" r="18.582" stroke="#EA3E3C" stroke-opacity=".359" stroke-width=".72"/>
        <path fill="#EA3E3C" d="M23.482 9.825l-2.355-.003c-2.647 0-4.357 1.761-4.357 4.488v2.07H14.4a.371.371 0 0 0-.37.372v2.999c0 .205.166.372.37.372h2.369v7.567c0 .205.166.372.37.372h3.09c.205 0 .371-.167.371-.372v-7.567h2.77c.204 0 .37-.167.37-.372v-2.999a.373.373 0 0 0-.37-.372h-2.77v-1.754c0-.844.2-1.272 1.294-1.272h1.587c.205 0 .37-.167.37-.372v-2.785a.371.371 0 0 0-.37-.372z"/>
    </g>
</svg>
