<?xml version="1.0" ?><!DOCTYPE svg  PUBLIC '-//W3C//DTD SVG 1.1//EN'  'http://www.w3.org/Graphics/SVG/1.1/DTD/svg11.dtd'><svg enable-background="new 0 0 1024 1024" height="1024px" id="Layer_1" version="1.1" viewBox="0 0 1024 1024" width="1024px" xml:space="preserve" xmlns="http://www.w3.org/2000/svg" xmlns:xlink="http://www.w3.org/1999/xlink"><g id="Background"><path d="M983.766,312.727c-25.785-60.972-62.694-115.728-109.705-162.744   C827.05,102.966,772.299,66.049,711.329,40.257C648.194,13.548,581.14,0.004,512,0c-69.104,0-136.155,13.54-199.289,40.243   c-60.969,25.787-115.721,62.699-162.735,109.71c-47.014,47.011-83.929,101.761-109.72,162.728   C13.548,375.814,0.004,442.865,0,511.97c-0.004,69.109,13.533,136.165,40.234,199.304   c25.785,60.973,62.696,115.728,109.707,162.743c47.011,47.018,101.762,83.935,162.732,109.727   c63.136,26.708,130.19,40.253,199.323,40.257h0.009c69.104,0,136.153-13.54,199.288-40.243   c60.969-25.787,115.72-62.699,162.733-109.709c47.013-47.01,83.929-101.76,109.72-162.728   c26.708-63.134,40.251-130.186,40.255-199.29C1024.004,442.921,1010.467,375.866,983.766,312.727z M512.004,976.328h-0.03   c-124.026-0.007-240.627-48.313-328.323-136.019C95.957,752.604,47.665,635.999,47.672,511.973   c0.015-256.016,208.312-464.3,464.356-464.3c124.026,0.007,240.626,48.312,328.32,136.017   c87.695,87.706,135.986,204.311,135.979,328.337C976.313,768.043,768.018,976.328,512.004,976.328z" fill="#262626"/></g><g id="Linkedin"><polygon fill="#262626" points="283.688,732.715 389.991,732.715 389.862,360.274 283.56,360.274  "/><path d="M756.622,459.913c-2.603-14.823-6.825-29.415-13.292-43.03c-3.735-7.865-8.44-15.298-14.018-21.996   c-6.509-7.813-15.168-15.005-23.963-20.125c-7.535-4.387-16.126-8.369-24.534-10.754c-4.985-1.273-10.105-2.148-15.301-2.733   c-15.595-1.755-31.854-0.905-47.479,0.299c-4.487,0.523-8.942,1.156-13.357,1.914c-4.414,0.758-8.788,1.642-13.107,2.635   c-7.62,2.349-14.249,6.053-19.914,10.912c-5.665,4.86-10.366,10.876-14.143,17.84c-2.167,3.997-4.043,8.214-5.266,12.602   c-0.063,0.231-1.167,5.42-0.94,5.42h-1.654l-0.13-52.622H443.262l0.129,372.522h105.559c0,0,0-199.771,0-227.093   c0-12.697,8.156-23.276,18.619-29.622c10.146-6.153,22.69-6.704,34.226-7.451c5.264-0.341,10.749-0.17,15.992,0.371   c9.104,0.941,18.279,3.818,25.085,10.183c11.363,10.629,13.125,26.838,13.125,41.521c0,11.863,0,23.727,0,35.591   c0,17.921,0,35.841,0,53.761c0,19.175,0,38.348,0,57.521c0,15.562,0,31.124,0,46.687c0,6.179,0,12.355,0,18.533H760.56   c0-6.171,0-12.342,0-18.513c0-15.825,0-31.65,0-47.477c0-19.485,0-38.974,0-58.46c0-31.925,0-63.85,0-95.773   C760.56,495.019,759.663,477.239,756.622,459.913z" fill="#262626"/><circle cx="336.84" cy="281.912" fill="#262626" r="53.4"/></g></svg>