<svg xmlns="http://www.w3.org/2000/svg" width="38" height="38" viewBox="0 0 38 38">
    <g fill="none" fill-rule="evenodd">
        <path fill="#EA3E3C" fill-rule="nonzero" d="M27.822 14.478a7.63 7.63 0 0 1-2.12.557 3.582 3.582 0 0 0 1.622-1.955 7.647 7.647 0 0 1-2.346.858 3.76 3.76 0 0 0-2.695-1.116c-2.04 0-3.693 1.583-3.693 3.534 0 .277.033.547.096.806-3.068-.148-5.79-1.555-7.61-3.694a3.396 3.396 0 0 0-.5 1.777c0 1.227.653 2.309 1.642 2.942a3.818 3.818 0 0 1-1.672-.444v.045c0 1.712 1.273 3.141 2.961 3.466-.309.08-.635.124-.972.124-.239 0-.47-.022-.696-.065.47 1.405 1.834 2.427 3.449 2.455a7.62 7.62 0 0 1-4.586 1.511c-.298 0-.591-.017-.88-.048a10.776 10.776 0 0 0 5.66 1.59c6.792 0 10.505-5.387 10.505-10.059l-.012-.457a7.21 7.21 0 0 0 1.847-1.827z"/>
        <circle cx="18.942" cy="18.942" r="18.582" stroke="#EA3E3C" stroke-opacity=".359" stroke-width=".72"/>
    </g>
</svg>
