<svg xmlns="http://www.w3.org/2000/svg" width="27" height="27" viewBox="0 0 27 27">
    <path fill="#FFF" fill-rule="nonzero" d="M2.084 15.114a1.483 1.483 0 0 1-1.081-1.335c-.038-.626.323-1.198.922-1.46l23.371-9.253a.932.932 0 0 1 .929.14c.262.21.389.552.32.877l-3.804 18.86a1.521 1.521 0 0 1-1.49 1.187c-.309 0-.607-.092-.86-.264l-4.37-2.942-3.056 3.292a.926.926 0 0 1-.988.25.912.912 0 0 1-.628-.803l-.325-5.92-8.94-2.63zm12.4 4.772l-1.551-1.043.138 2.562 1.413-1.519zM24.106 6.84L13.37 16.941l7.656 5.156 3.08-15.258zm-20.58 6.806l8.134 2.39 10.295-9.689-18.428 7.299z"/>
</svg>
