<svg xmlns="http://www.w3.org/2000/svg" width="76" height="72" viewBox="0 0 76 72">
    <g fill="#EA3E3C" fill-rule="nonzero">
        <path d="M76 27.24V67.984c-.004.362-.06.72-.164 1.066a1.582 1.582 0 0 1-.047 1.476 1.724 1.724 0 0 1-1.733.839 4.29 4.29 0 0 1-2.243.634H5.186a4.288 4.288 0 0 1-2.24-.627 1.741 1.741 0 0 1-1.613-.655 1.586 1.586 0 0 1-.168-1.668A3.845 3.845 0 0 1 1 67.98V27.7c.01-.101.013-.125.02-.149.013-.101.035-.198.058-.261.023-.098.056-.194.115-.322.05-.088.108-.172.152-.222.06-.082.126-.158.207-.235.018-.025.03-.036.112-.11l11.673-8.707V8.753c0-2.22 1.875-4.02 4.187-4.02h13.205L35.952.841a4.283 4.283 0 0 1 5.095 0l5.223 3.892h13.205c2.312 0 4.187 1.8 4.187 4.02v8.941L75.333 26.4a.797.797 0 0 1 .113.11c.077.071.145.148.186.208.066.077.124.161.193.287.038.085.069.173.083.234H76zm-62.475-9.686l-.188.368v-.228l.188-.14zM38.929 3.442a.72.72 0 0 0-.868 0l-.004.003-1.722 1.288h4.325l-1.731-1.29zM70.09 68.7L38.93 45.468a.726.726 0 0 0-.872.002L6.907 68.699H70.09zm2.471-38.237L53.09 44.977c-.75.56-1.83.429-2.413-.291a1.607 1.607 0 0 1 .303-2.317l20.084-14.973-7.403-5.522v8.2c0 .912-.77 1.651-1.72 1.651-.949 0-1.718-.739-1.718-1.65V8.753c0-.397-.335-.719-.749-.719h-41.95c-.414 0-.749.322-.749.719v21.322c0 .911-.77 1.65-1.719 1.65-.95 0-1.719-.739-1.719-1.65v-8.201l-7.403 5.522L25.98 42.342c.75.559.887 1.596.305 2.316-.582.72-1.662.852-2.413.293L4.437 30.461v35.902l31.516-23.5a4.282 4.282 0 0 1 5.092 0l31.516 23.5V30.462zm-46.4-14.136c-.95 0-1.72-.739-1.72-1.65 0-.912.77-1.651 1.72-1.651h24.677c.95 0 1.719.739 1.719 1.65 0 .912-.77 1.651-1.72 1.651H26.162zm26.396 5.457c0 .911-.77 1.65-1.72 1.65H26.162c-.95 0-1.72-.739-1.72-1.65 0-.912.77-1.65 1.72-1.65h24.677c.95 0 1.719.738 1.719 1.65zm0 7.107c0 .912-.77 1.65-1.72 1.65H39.734c-.95 0-1.72-.738-1.72-1.65 0-.911.77-1.65 1.72-1.65h11.105c.95 0 1.719.739 1.719 1.65z"/>
        <path fill-opacity=".188" d="M20.64 72H4.86a4.454 4.454 0 0 1-2.288-.627 1.798 1.798 0 0 1-1.65-.655 1.558 1.558 0 0 1-.17-1.668 3.77 3.77 0 0 1-.17-1.07V27.7c.011-.101.014-.125.022-.149.012-.101.034-.198.058-.261.024-.098.057-.194.118-.322.05-.088.11-.172.155-.222.06-.082.129-.158.211-.235.019-.025.031-.036.115-.11l11.93-8.707V8.753c0-2.22 1.915-4.02 4.279-4.02h13.495L36.302.841a4.455 4.455 0 0 1 5.208 0l5.286 3.855-.05.037H33.25c-2.363 0-4.279 1.8-4.279 4.02v8.941l-11.93 8.708c-.083.073-.096.084-.114.109-.083.077-.151.153-.211.235-.045.05-.105.134-.155.222-.061.128-.095.224-.119.322-.023.063-.045.16-.058.261-.007.024-.01.048-.021.15v40.28c.005.365.062.723.169 1.069-.27.537-.21 1.179.171 1.668.384.491 1.02.737 1.65.655a4.454 4.454 0 0 0 2.286.627z"/>
    </g>
</svg>
