<svg xmlns="http://www.w3.org/2000/svg" width="66" height="46" viewBox="0 0 66 46">
    <path fill="#F80" fill-rule="nonzero" d="M51.758 46c-5.455 0-9.445-1.917-11.97-5.75-1.111-1.554-2.02-3.626-2.727-6.216-.707-2.59-1.061-5.44-1.061-8.548 0-5.387 1.364-10.36 4.09-14.918C42.819 6.009 46.809 2.486 52.06 0l1.364 2.797c-2.626 1.244-4.974 3.03-7.045 5.362-2.07 2.33-3.51 4.791-4.318 7.382-.505 1.45-.758 3.16-.758 5.128 0 1.554.101 2.694.303 3.419 2.626-3.212 6.313-4.818 11.06-4.818 4.041 0 7.273 1.166 9.698 3.497C64.788 25.098 66 28.387 66 32.635c0 4.04-1.313 7.278-3.94 9.713C59.435 44.783 56 46 51.759 46zm-36 0c-5.455 0-9.445-1.917-11.97-5.75-1.111-1.554-2.02-3.626-2.727-6.216C.354 31.444 0 28.594 0 25.486c0-5.387 1.364-10.36 4.09-14.918C6.819 6.009 10.809 2.486 16.06 0l1.364 2.797c-2.626 1.244-4.974 3.03-7.045 5.362-2.07 2.33-3.51 4.791-4.318 7.382-.505 1.45-.758 3.16-.758 5.128 0 1.554.101 2.694.303 3.419 2.626-3.212 6.313-4.818 11.06-4.818 4.041 0 7.273 1.166 9.698 3.497C28.788 25.098 30 28.387 30 32.635c0 4.04-1.313 7.278-3.94 9.713C23.435 44.783 20 46 15.759 46z"/>
</svg>
