<svg xmlns="http://www.w3.org/2000/svg" width="66" height="46" viewBox="0 0 66 46">
    <path fill="#F80" fill-rule="nonzero" d="M14.242 0c5.455 0 9.445 1.917 11.97 5.75 1.111 1.554 2.02 3.626 2.727 6.216.707 2.59 1.061 5.44 1.061 8.548 0 5.387-1.364 10.36-4.09 14.918-2.728 4.559-6.718 8.082-11.97 10.568l-1.364-2.797c2.626-1.244 4.974-3.03 7.045-5.362 2.07-2.33 3.51-4.791 4.318-7.382.505-1.45.758-3.16.758-5.128 0-1.554-.101-2.694-.303-3.419-2.626 3.212-6.313 4.818-11.06 4.818-4.041 0-7.273-1.166-9.698-3.497C1.212 20.902 0 17.613 0 13.365c0-4.04 1.313-7.278 3.94-9.713C6.565 1.217 10 0 14.241 0zm36 0c5.455 0 9.445 1.917 11.97 5.75 1.111 1.554 2.02 3.626 2.727 6.216.707 2.59 1.061 5.44 1.061 8.548 0 5.387-1.364 10.36-4.09 14.918-2.728 4.559-6.718 8.082-11.97 10.568l-1.364-2.797c2.626-1.244 4.974-3.03 7.045-5.362 2.07-2.33 3.51-4.791 4.318-7.382.505-1.45.758-3.16.758-5.128 0-1.554-.101-2.694-.303-3.419-2.626 3.212-6.313 4.818-11.06 4.818-4.041 0-7.273-1.166-9.698-3.497C37.212 20.902 36 17.613 36 13.365c0-4.04 1.313-7.278 3.94-9.713C42.565 1.217 46 0 50.241 0z"/>
</svg>
